<svg id="Layer" enable-background="new 0 0 64 64" height="512" viewBox="0 0 64 64" width="512" xmlns="http://www.w3.org/2000/svg"><path d="m52 20v-12h-40v12c0 7.439 5.111 13.69 12 15.473v8.527h-2c-3.309 0-6 2.691-6 6v6h32v-6c0-3.309-2.691-6-6-6h-2v-8.527c6.889-1.783 12-8.034 12-15.473zm-32.532-2h-3.468v-5.779zm25.064 0 3.468-5.779v5.779zm-1.064-6-3.468 5.779-3.468-5.779zm-8 6h-6.935l3.467-5.779zm-8-6-3.468 5.779-3.468-5.779zm-11.287 10h31.639c-.957 5.666-5.886 10-11.82 10h-8c-5.934 0-10.863-4.334-11.819-10zm25.819 26c1.103 0 2 .897 2 2v2h-24v-2c0-1.103.897-2 2-2zm-6-4h-8v-8h8z"/></svg>