<?xml version="1.0" encoding="utf-8"?>
<!-- Generator: Adobe Illustrator 16.0.0, SVG Export Plug-In . SVG Version: 6.00 Build 0)  -->
<!DOCTYPE svg PUBLIC "-//W3C//DTD SVG 1.1//EN" "http://www.w3.org/Graphics/SVG/1.1/DTD/svg11.dtd">
<svg version="1.1" id="Layer_1" xmlns="http://www.w3.org/2000/svg" xmlns:xlink="http://www.w3.org/1999/xlink" x="0px" y="0px"
	 width="150px" height="210px" viewBox="419 420 150 217" xml:space="preserve" fill="#fff">

	<g>
		<path d="M493.457,478.852c-37.323,0-76.99-9.48-76.99-27.051c0-17.57,39.667-27.049,76.99-27.049
			c37.322,0,76.989,9.479,76.989,27.049C570.446,469.371,530.779,478.852,493.457,478.852z M493.457,432.242
			c-43.059,0-69.499,11.391-69.499,19.559s26.439,19.56,69.499,19.56c43.059,0,69.499-11.393,69.499-19.56
			S536.516,432.242,493.457,432.242z"/>
		<path d="M493.453,557.091c-1.725,0-3.277-1.2-3.656-2.954c-0.438-2.021,0.845-4.013,2.864-4.453l0,0
			c0.196-0.042,19.795-4.445,38.151-18.718c24.315-18.905,35.135-45.428,32.158-78.832c-0.183-2.061,1.337-3.879,3.398-4.063
			c2.041-0.177,3.879,1.337,4.063,3.398c4.02,45.113-16.952,71.446-35.253,85.59c-19.69,15.221-40.07,19.76-40.929,19.946
			C493.982,557.063,493.715,557.091,493.453,557.091z"/>
		<path d="M493.452,574.566c-1.88,0-3.502-1.411-3.718-3.325c-0.231-2.054,1.245-3.907,3.298-4.141
			c1.122-0.132,26.187-3.356,26.159-26.203c-0.002-2.069,1.673-3.748,3.741-3.751c0.001,0,0.003,0,0.005,0
			c2.066,0,3.743,1.674,3.745,3.741c0.029,23.691-21.446,32.375-32.806,33.654C493.733,574.56,493.592,574.566,493.452,574.566z"/>
		<path d="M493.952,557.091c-0.262,0-0.529-0.028-0.796-0.086c-0.858-0.187-21.239-4.726-40.929-19.946
			c-18.302-14.145-39.273-40.478-35.253-85.59c0.183-2.061,2.01-3.575,4.063-3.398c2.061,0.184,3.581,2.003,3.398,4.063
			c-2.986,33.508,7.905,60.086,32.373,79c18.365,14.194,37.739,18.508,37.933,18.549c2.021,0.439,3.305,2.433,2.868,4.454
			C497.229,555.891,495.677,557.091,493.952,557.091z"/>
		<path d="M493.953,574.566c-0.14,0-0.282-0.007-0.424-0.024c-11.361-1.279-32.836-9.963-32.807-33.654
			c0.002-2.067,1.679-3.741,3.746-3.741c0.001,0,0.002,0,0.005,0c2.068,0.003,3.743,1.682,3.741,3.751
			c-0.028,22.984,25.085,26.081,26.154,26.203c2.056,0.231,3.535,2.085,3.303,4.141
			C497.455,573.153,495.833,574.566,493.953,574.566z"/>
		<path d="M493.702,613.581c-4.158,0-14.199-0.56-17.619-5.738c-0.405-0.613-0.621-1.33-0.621-2.064v-39.939
			c0-2.069,1.677-3.746,3.746-3.746s3.746,1.677,3.746,3.746v38.357c1.459,0.832,5.148,1.895,10.749,1.895
			c5.597,0,9.285-1.061,10.75-1.897v-38.354c0-2.069,1.676-3.746,3.746-3.746c2.069,0,3.745,1.677,3.745,3.746v39.939
			c0,0.734-0.216,1.451-0.621,2.064C507.902,613.021,497.861,613.581,493.702,613.581z"/>
		<path d="M493.948,620.656c-11.085,0-22.599-4.695-24.639-10.049c-1.048-2.75-0.973-5.314,0.223-7.617
			c2.473-4.759,8.94-6.448,9.215-6.518c1.003-0.255,2.021,0.352,2.276,1.354c0.253,1.001-0.351,2.019-1.351,2.274l0,0
			c-0.051,0.014-5.133,1.358-6.82,4.625c-0.688,1.33-0.702,2.818-0.043,4.548c1.173,3.075,10.565,7.637,21.14,7.637
			c10.665,0,19.49-4.597,20.648-7.636c0.66-1.734,0.644-3.225-0.049-4.558c-1.679-3.233-6.76-4.602-6.812-4.614
			c-1.002-0.255-1.609-1.274-1.354-2.276c0.256-1.003,1.271-1.609,2.276-1.354c0.274,0.069,6.742,1.759,9.214,6.518
			c1.196,2.303,1.272,4.867,0.223,7.617C516.022,616.054,504.964,620.656,493.948,620.656z"/>
		<path d="M493.707,636.887c-0.004,0-0.002,0-0.005,0c-24.044,0-48.349-8.768-54.178-19.545c-2.404-4.444-2.208-9.439,0.55-14.067
			c5.722-9.603,21.083-15.806,39.134-15.806c2.069,0,3.746,1.678,3.746,3.745s-1.677,3.745-3.746,3.745
			c-17.587,0-29.095,6.103-32.699,12.148c-1.393,2.337-1.526,4.582-0.396,6.669c3.529,6.522,23.339,15.619,47.59,15.619
			c0.001,0,0.003,0,0.005,0c24.751,0,44.928-9.182,47.414-15.256c0.872-2.129,0.767-4.007-0.331-5.91
			c-3.432-5.955-15.808-10.93-33.103-13.305c-2.049-0.282-3.482-2.171-3.2-4.221c0.28-2.05,2.157-3.485,4.219-3.201
			c20.449,2.809,33.788,8.683,38.574,16.985c2.252,3.905,2.519,8.224,0.773,12.49C543.637,627.77,518.748,636.886,493.707,636.887z"
			/>
		<path d="M423.93,461.018c-0.567,0-1.126-0.256-1.495-0.744c-0.624-0.825-0.461-2,0.364-2.623
			c12.228-9.243,40.925-15.214,73.112-15.214c29.379,0,56.141,4.998,69.841,13.044c0.891,0.523,1.19,1.67,0.666,2.563
			c-0.524,0.894-1.669,1.189-2.563,0.666c-13.158-7.728-39.193-12.528-67.944-12.528c-30.941,0-59.414,5.81-70.854,14.457
			C424.72,460.895,424.324,461.018,423.93,461.018z"/>
		<path d="M495.912,493.625c-35.799,0-67.262-7.548-76.514-18.355c-0.673-0.785-0.58-1.968,0.205-2.641
			c0.789-0.673,1.969-0.578,2.641,0.205c8.454,9.877,39.437,17.046,73.668,17.046c29.462,0,56.591-5.2,69.115-13.247
			c0.869-0.56,2.029-0.308,2.587,0.563c0.56,0.871,0.307,2.029-0.563,2.587C553.764,488.321,526.506,493.625,495.912,493.625z"/>
		<path d="M494.291,525.669c-7.229,0-13.109-5.974-13.109-13.317c0-7.343,5.88-13.317,13.109-13.317
			c7.229,0,13.109,5.975,13.109,13.317C507.4,519.695,501.52,525.669,494.291,525.669z M494.291,502.779
			c-5.164,0-9.364,4.295-9.364,9.572c0,5.278,4.2,9.572,9.364,9.572c5.163,0,9.363-4.294,9.363-9.572
			C503.654,507.074,499.454,502.779,494.291,502.779z"/>
	</g>
</svg>