<?xml version="1.0" encoding="utf-8"?>
<!-- Generator: Adobe Illustrator 16.0.0, SVG Export Plug-In . SVG Version: 6.00 Build 0)  -->
<!DOCTYPE svg PUBLIC "-//W3C//DTD SVG 1.1//EN" "http://www.w3.org/Graphics/SVG/1.1/DTD/svg11.dtd">
<svg version="1.1" id="Layer_1" xmlns="http://www.w3.org/2000/svg" xmlns:xlink="http://www.w3.org/1999/xlink" x="0px" y="0px"
	 width="110px" height="310px" fill="#fff" viewBox="1135 385 110 310" enable-background="new 0 0 1400 980" xml:space="preserve">
	<g>
		<path d="M1166.576,499.24c-0.47,0-0.948-0.089-1.41-0.276c-1.916-0.78-2.837-2.967-2.057-4.882l8.799-21.614
			c0.78-1.917,2.967-2.836,4.881-2.057c1.916,0.78,2.837,2.965,2.057,4.882l-8.799,21.614
			C1169.455,498.36,1168.055,499.24,1166.576,499.24z" />
		<path d="M1189.938,479.978c-0.07,0-0.141-0.001-0.213-0.006c-0.795-0.044-19.585-1.155-30.121-6.7
			c-6.516-3.432-9.332,1.128-9.631,1.659c-1.015,1.803-3.3,2.443-5.102,1.429c-1.803-1.015-2.442-3.298-1.429-5.101
			c1.808-3.209,8.856-10.295,19.651-4.616c9.108,4.794,26.872,5.84,27.051,5.85c2.064,0.116,3.645,1.884,3.529,3.949
			C1193.563,478.437,1191.91,479.978,1189.938,479.978z"/>
		<path d="M1147.987,484.311c-1.845,0-3.75-0.417-5.496-1.423c-2.013-1.159-5.377-4.091-5.281-10.707
			c0.065-4.511,1.833-8.229,5.112-10.75c7.488-5.762,20.095-3.434,25.164-2.167c9.683,2.424,16.271-1.517,16.545-1.687
			c1.757-1.074,4.06-0.538,5.147,1.208c1.087,1.747,0.574,4.036-1.165,5.137c-0.379,0.24-9.437,5.835-22.344,2.609
			c-3.899-0.976-7.628-1.41-10.816-1.308c0.363,0.207,0.698,0.478,0.985,0.813c2.636,3.062,3.801,6.531,3.277,9.771
			c-0.452,2.809-2.132,5.216-4.729,6.774C1152.676,483.609,1150.383,484.31,1147.987,484.311z M1150.385,465.8
			c-1.42,0.36-2.605,0.884-3.496,1.569c-1.46,1.123-2.156,2.687-2.188,4.921c-0.021,1.459,0.228,3.357,1.529,4.107
			c1.246,0.717,3.167,0.442,4.304-0.239c0.689-0.413,1.09-0.933,1.188-1.542c0.162-1.007-0.405-2.352-1.56-3.692
			C1148.864,469.416,1148.979,467.17,1150.385,465.8z"/>
		<path d="M1189.935,479.978c-5.862,0-10.631-5.491-10.631-12.242c0-6.75,4.769-12.243,10.631-12.243
			c2.068,0,3.745,1.678,3.745,3.746c0,2.069-1.677,3.745-3.745,3.745c-1.485,0-3.14,1.952-3.14,4.752
			c0,2.801,1.654,4.751,3.14,4.751c2.068,0,3.745,1.678,3.745,3.746C1193.68,478.302,1192.003,479.978,1189.935,479.978z"/>
		<path d="M1179.445,466.926c-1.92,0-3.557-1.47-3.726-3.419c-0.087-0.985-2.049-24.239,2.852-35.444
			c0.425-0.969,1.237-1.714,2.241-2.051c1.001-0.336,2.1-0.233,3.022,0.284c0.805,0.44,3.411,1.541,5.609,1.253
			c2.065-0.267,3.933,1.173,4.204,3.224c0.27,2.051-1.174,3.933-3.224,4.203c-2.216,0.293-4.355-0.027-6.106-0.502
			c-2.161,8.751-1.607,22.984-1.137,28.382c0.18,2.061-1.346,3.877-3.406,4.057C1179.665,466.922,1179.555,466.926,1179.445,466.926
			z"/>
		<path d="M1182.005,433.311c-1.458,0-2.845-0.857-3.449-2.285c-0.279-0.656-1.604-4.084-0.307-7.063
			c0.666-1.531,1.917-2.696,3.521-3.278c3.569-1.301,8.033-0.911,8.528-0.862c2.06,0.203,3.564,2.035,3.362,4.093
			c-0.201,2.057-2.061,3.558-4.084,3.364c-1.006-0.094-2.855-0.099-4.313,0.192c0.057,0.252,0.133,0.499,0.188,0.629
			c0.809,1.905-0.08,4.103-1.984,4.911C1182.988,433.214,1182.492,433.311,1182.005,433.311z"/>
		<path d="M1183.621,427.763c-1.846,0-3.454-1.366-3.707-3.247c-0.427-3.173-1.789-13.766-1.356-16.792
			c0.672-4.694,4.503-6.459,4.937-6.646l2.946,6.887c0,0,0.048-0.016,0.126-0.058c-0.152,0.083-0.516,0.334-0.594,0.877
			c-0.185,1.462,0.564,8.787,1.366,14.732c0.275,2.051-1.163,3.936-3.213,4.212C1183.957,427.751,1183.788,427.763,1183.621,427.763
			z"/>
		<path d="M1189.935,410.29c-5.994,0-10.871-4.877-10.871-10.871s4.877-10.871,10.871-10.871c2.068,0,3.745,1.678,3.745,3.746
			c0,2.069-1.677,3.745-3.745,3.745c-1.863,0-3.38,1.517-3.38,3.38s1.517,3.379,3.38,3.379c2.068,0,3.745,1.677,3.745,3.746
			C1193.68,408.612,1192.003,410.29,1189.935,410.29z"/>
		<path d="M1189.93,685.743c-1.86,0-3.475-1.386-3.712-3.28l-23.356-186.503c-0.257-2.053,1.199-3.925,3.251-4.183
			c2.067-0.256,3.926,1.2,4.182,3.252l23.356,186.502c0.258,2.054-1.198,3.924-3.25,4.183
			C1190.241,685.733,1190.084,685.743,1189.93,685.743z"/>
		<path d="M1184.897,643.637c-0.164,0-0.331-0.022-0.497-0.066c-0.997-0.275-1.584-1.305-1.31-2.302l4.971-18.088V502.876
			l-21.944-5.566c-1.002-0.255-1.608-1.273-1.354-2.275c0.256-1.004,1.271-1.608,2.276-1.355l23.356,5.925
			c0.83,0.211,1.411,0.959,1.411,1.815v122.013c0,0.168-0.021,0.334-0.066,0.497l-5.038,18.332
			C1186.475,643.09,1185.72,643.637,1184.897,643.637z"/>
		<path d="M1213.292,499.24c-1.478,0-2.878-0.88-3.47-2.333l-8.798-21.614c-0.78-1.917,0.139-4.102,2.056-4.882
			c1.914-0.779,4.102,0.14,4.882,2.057l8.798,21.614c0.78,1.915-0.14,4.102-2.056,4.882
			C1214.24,499.151,1213.763,499.24,1213.292,499.24z"/>
		<path d="M1189.931,479.978c-1.972,0-3.624-1.541-3.735-3.534c-0.116-2.065,1.464-3.833,3.528-3.951
			c0.179-0.01,17.962-1.065,27.053-5.85c10.788-5.682,17.845,1.406,19.651,4.616c1.012,1.803,0.373,4.086-1.429,5.101
			c-1.805,1.014-4.087,0.374-5.102-1.429c-0.702-1.169-3.536-4.871-9.632-1.659c-10.536,5.545-29.326,6.656-30.121,6.7
			C1190.072,479.977,1190.001,479.978,1189.931,479.978z"/>
		<path d="M1231.88,484.311c-2.395,0-4.687-0.702-6.396-1.729c-2.6-1.558-4.279-3.965-4.73-6.774
			c-0.524-3.24,0.641-6.709,3.277-9.771c0.287-0.335,0.621-0.606,0.984-0.813c-3.182-0.102-6.915,0.333-10.816,1.308
			c-12.914,3.229-21.964-2.369-22.345-2.609c-1.747-1.107-2.268-3.42-1.162-5.168c1.103-1.742,3.4-2.264,5.149-1.174
			c0.33,0.201,6.906,4.096,16.541,1.684c5.071-1.267,17.673-3.594,25.164,2.167c3.279,2.521,5.045,6.239,5.111,10.75
			c0.098,6.616-3.268,9.548-5.279,10.707C1235.633,483.894,1233.726,484.311,1231.88,484.311z M1229.485,465.8
			c1.404,1.371,1.52,3.616,0.222,5.125c-1.153,1.34-1.721,2.685-1.561,3.692c0.101,0.609,0.5,1.129,1.19,1.543
			c1.134,0.679,3.056,0.955,4.304,0.238c1.302-0.75,1.549-2.647,1.526-4.106c-0.032-2.235-0.727-3.799-2.188-4.922
			C1232.09,466.684,1230.902,466.161,1229.485,465.8z"/>
		<path d="M1189.935,479.978c-2.069,0-3.746-1.676-3.746-3.745c0-2.068,1.677-3.746,3.746-3.746c1.484,0,3.14-1.951,3.14-4.751
			c0-2.8-1.655-4.752-3.14-4.752c-2.069,0-3.746-1.676-3.746-3.745c0-2.068,1.677-3.746,3.746-3.746
			c5.861,0,10.631,5.493,10.631,12.243C1200.565,474.487,1195.796,479.978,1189.935,479.978z"/>
		<path d="M1200.425,466.926c-0.11,0-0.22-0.004-0.332-0.014c-2.061-0.18-3.585-1.996-3.405-4.057
			c0.47-5.4,1.018-19.637-1.14-28.382c-1.751,0.477-3.894,0.793-6.104,0.502c-2.051-0.27-3.493-2.152-3.224-4.203
			c0.271-2.051,2.148-3.491,4.204-3.224c2.19,0.284,4.804-0.813,5.624-1.262c0.924-0.504,2.022-0.602,3.018-0.263
			c0.994,0.339,1.809,1.075,2.229,2.037c4.903,11.206,2.94,34.46,2.855,35.445C1203.979,465.456,1202.344,466.926,1200.425,466.926z
			"/>
		<path d="M1197.863,433.311c-0.489,0-0.985-0.096-1.462-0.299c-1.905-0.808-2.794-3.008-1.985-4.912
			c0.072-0.178,0.141-0.407,0.19-0.629c-1.532-0.305-3.459-0.276-4.308-0.193c-2.056,0.195-3.892-1.305-4.092-3.363
			c-0.202-2.058,1.304-3.89,3.363-4.093c0.494-0.049,4.957-0.439,8.53,0.862c1.603,0.583,2.853,1.747,3.519,3.278
			c1.297,2.979-0.029,6.407-0.307,7.064C1200.707,432.453,1199.32,433.309,1197.863,433.311z"/>
		<path d="M1196.247,427.763c-0.167,0-0.335-0.012-0.505-0.034c-2.049-0.277-3.487-2.162-3.212-4.212
			c0.801-5.945,1.551-13.27,1.364-14.735c-0.076-0.534-0.462-0.813-0.466-0.816c-1.902-0.813-2.785-3.014-1.972-4.916
			c0.814-1.902,3.016-2.785,4.917-1.972c0.435,0.187,4.265,1.952,4.938,6.646c0.431,3.026-0.93,13.619-1.356,16.792
			C1199.703,426.397,1198.094,427.763,1196.247,427.763z"/>
		<path d="M1189.935,410.29c-2.069,0-3.746-1.678-3.746-3.746c0-2.069,1.677-3.746,3.746-3.746c1.862,0,3.38-1.517,3.38-3.379
			s-1.518-3.38-3.38-3.38c-2.069,0-3.746-1.676-3.746-3.745c0-2.068,1.677-3.746,3.746-3.746c5.993,0,10.87,4.877,10.87,10.871
			S1195.928,410.29,1189.935,410.29z"/>
		<path d="M1189.939,685.743c-0.156,0-0.313-0.01-0.471-0.029c-2.052-0.259-3.508-2.129-3.251-4.183l23.358-186.502
			c0.256-2.053,2.128-3.508,4.182-3.252c2.051,0.258,3.506,2.13,3.25,4.183l-23.357,186.503
			C1193.414,684.357,1191.8,685.743,1189.939,685.743z"/>
		<path d="M1194.971,643.637c-0.821,0-1.576-0.544-1.805-1.376l-5.037-18.332c-0.045-0.163-0.067-0.329-0.067-0.497V501.419
			c0-0.856,0.582-1.604,1.412-1.815l23.357-5.925c1.005-0.253,2.021,0.352,2.275,1.355c0.253,1.002-0.352,2.021-1.354,2.275
			l-21.946,5.566v120.305l4.971,18.088c0.274,0.997-0.312,2.026-1.309,2.302C1195.303,643.614,1195.136,643.637,1194.971,643.637z"
			/>
	</g>
  </svg>